<svg width="26" height="12" viewBox="0 0 26 12" fill="none" xmlns="http://www.w3.org/2000/svg">
<path d="M25.037 4.72687C24.5597 4.5673 21.2399 3.84176 21.2399 3.84176C21.2399 3.84176 15.0857 0.342178 14.3471 0.342178C13.6086 0.342178 8.54222 0.34443 8.54222 0.34443C7.30437 0.34443 6.2699 1.28769 5.07216 2.37978C4.50768 2.89434 3.88461 3.46064 3.19736 3.96437L0.637764 4.30471C0.267902 4.42264 0 4.76871 0 5.17762V8.11026C0 8.61637 0.410222 9.02667 0.916371 9.02667H2.67523C2.80298 10.4987 4.04121 11.6578 5.54585 11.6578C7.05041 11.6578 8.28872 10.4987 8.41647 9.02672H16.8149C16.9427 10.4988 18.1809 11.6578 19.6855 11.6578C21.1902 11.6578 22.4284 10.4987 22.5562 9.02672H24.0011C25.1461 9.02672 25.7055 8.53221 25.846 8.06803C26.2013 6.8934 25.9458 5.03071 25.037 4.72687ZM5.54585 10.2687C4.72252 10.2687 4.05264 9.59893 4.05264 8.7756C4.05264 7.95227 4.72243 7.28238 5.54585 7.28238C6.36918 7.28238 7.03898 7.95218 7.03898 8.7756C7.03902 9.59893 6.36918 10.2687 5.54585 10.2687ZM11.0886 3.84185H6.08085C6.44306 3.55568 6.77796 3.25192 7.08648 2.97072C7.89732 2.23142 8.59762 1.5929 9.43556 1.5929C9.43556 1.5929 10.1939 1.59256 11.0886 1.59217V3.84185H11.0886ZM12.308 1.59171C12.9277 1.59149 13.4802 1.59132 13.7573 1.59132C14.4475 1.59132 17.2467 3.21692 18.2973 3.84189H12.308V1.59171ZM19.6855 10.2687C18.8622 10.2687 18.1924 9.59893 18.1924 8.7756C18.1924 7.95227 18.8622 7.28238 19.6855 7.28238C20.5088 7.28238 21.1787 7.95218 21.1787 8.7756C21.1787 9.59893 20.5088 10.2687 19.6855 10.2687Z" fill="#343B71"/>
</svg>
