<svg width="20" height="20" viewBox="0 0 20 20" fill="none" xmlns="http://www.w3.org/2000/svg">
<path d="M0.333295 19.1953L0.0976279 19.431C-0.0327054 19.5613 -0.0327054 19.772 0.0976279 19.9023C0.162628 19.9673 0.247961 20 0.333295 20C0.418628 20 0.503961 19.9673 0.568961 19.9023L0.804628 19.6667C0.934961 19.5363 0.934961 19.3257 0.804628 19.1953C0.674295 19.065 0.463628 19.065 0.333295 19.1953Z" fill="white"/>
<path d="M4.69228 17.3333C4.50828 17.3333 4.35895 17.4823 4.35895 17.6667C4.35895 17.851 4.50828 18 4.69228 18H5.29928C5.48328 18 5.63262 17.851 5.63262 17.6667C5.63262 17.4823 5.48328 17.3333 5.29928 17.3333H4.69228Z" fill="white"/>
<path d="M6.51296 17.3333C6.32896 17.3333 6.17963 17.4823 6.17963 17.6667C6.17963 17.851 6.32896 18 6.51296 18H7.11963C7.30363 18 7.45296 17.851 7.45296 17.6667C7.45296 17.4823 7.30363 17.3333 7.11963 17.3333H6.51296Z" fill="white"/>
<path d="M2.87197 17.3333C2.68797 17.3333 2.53864 17.4823 2.53864 17.6667C2.53864 17.851 2.68797 18 2.87197 18H3.47864C3.66264 18 3.81197 17.851 3.81197 17.6667C3.81197 17.4823 3.66264 17.3333 3.47864 17.3333H2.87197Z" fill="white"/>
<path d="M2.09165 17.9083C1.96132 17.778 1.75065 17.778 1.62032 17.9083L1.19132 18.3373C1.06098 18.4677 1.06098 18.6783 1.19132 18.8087C1.25632 18.8737 1.34165 18.9063 1.42698 18.9063C1.51232 18.9063 1.59765 18.8737 1.66265 18.8087L2.09165 18.3797C2.22198 18.2493 2.22198 18.0383 2.09165 17.9083Z" fill="white"/>
<path d="M8.33333 17.3333C8.14933 17.3333 8 17.4823 8 17.6667C8 17.851 8.14933 18 8.33333 18H8.66667C8.85067 18 9 17.851 9 17.6667C9 17.4823 8.85067 17.3333 8.66667 17.3333H8.33333Z" fill="white"/>
<path d="M0.333323 17.9193C0.418656 17.9193 0.503989 17.8867 0.568989 17.8217L1.86099 16.5297C1.89266 16.498 1.92732 16.4697 1.97732 16.439L2.04166 16.4043C2.05332 16.3973 2.06466 16.3903 2.07699 16.385L2.20166 16.3467C2.24532 16.3383 2.28932 16.3333 2.33332 16.3333H7.33332C7.51732 16.3333 7.66666 16.1843 7.66666 16C7.66666 15.8157 7.51732 15.6667 7.33332 15.6667H2.33332C2.24799 15.6667 2.16032 15.6753 2.06966 15.693C2.03766 15.7 2.00699 15.7093 1.97666 15.7193L1.93299 15.7323C1.89566 15.7423 1.85832 15.7537 1.82432 15.7677C1.78466 15.784 1.74732 15.804 1.71032 15.8253L1.67866 15.8427C1.65032 15.857 1.62232 15.8717 1.59299 15.8913C1.51932 15.9403 1.45099 15.9967 1.38932 16.0583L0.0973227 17.3503C-0.0330106 17.4807 -0.0330106 17.6913 0.0973227 17.8217C0.162656 17.8867 0.247989 17.9193 0.333323 17.9193Z" fill="white"/>
<path d="M19.431 16.2357C19.5163 16.2357 19.6016 16.203 19.6666 16.138L19.9023 15.9023C20.0326 15.772 20.0326 15.5613 19.9023 15.431C19.772 15.3007 19.5613 15.3007 19.431 15.431L19.1953 15.6667C19.065 15.797 19.065 16.0077 19.1953 16.138C19.2603 16.203 19.3456 16.2357 19.431 16.2357Z" fill="white"/>
<path d="M18.1886 16.6733L17.6853 17.1767C17.5549 17.307 17.5549 17.5177 17.6853 17.648C17.7503 17.713 17.8356 17.7457 17.9209 17.7457C18.0063 17.7457 18.0916 17.713 18.1566 17.648L18.6599 17.1447C18.7903 17.0143 18.7903 16.8037 18.6599 16.6733C18.5296 16.543 18.3189 16.543 18.1886 16.6733Z" fill="white"/>
<path d="M13.7566 17.3333C13.5726 17.3333 13.4233 17.4823 13.4233 17.6667C13.4233 17.851 13.5726 18 13.7566 18H14.4683C14.6523 18 14.8016 17.851 14.8016 17.6667C14.8016 17.4823 14.6523 17.3333 14.4683 17.3333H13.7566Z" fill="white"/>
<path d="M15.8916 17.3333C15.7073 17.3333 15.5583 17.4823 15.5583 17.6667C15.5583 17.851 15.7073 18 15.8916 18H16.6033C16.7876 18 16.9366 17.851 16.9366 17.6667C16.9366 17.4823 16.7876 17.3333 16.6033 17.3333H15.8916Z" fill="white"/>
<path d="M12 17.3333C11.816 17.3333 11.6666 17.4823 11.6666 17.6667C11.6666 17.851 11.816 18 12 18H12.3333C12.5173 18 12.6666 17.851 12.6666 17.6667C12.6666 17.4823 12.5173 17.3333 12.3333 17.3333H12Z" fill="white"/>
<path d="M19.431 17.5117L18.139 18.8037C18.1076 18.835 18.0733 18.863 18.0233 18.894L17.9606 18.928C17.9473 18.9353 17.9343 18.9437 17.921 18.949C17.9106 18.9533 17.8996 18.9557 17.8886 18.9587L17.796 18.9867C17.7536 18.9953 17.7103 19 17.6666 19H2.62996L2.12429 19.407C1.98096 19.5227 1.95796 19.7327 2.07363 19.8757C2.13929 19.9573 2.23596 20 2.33329 20C2.40663 20 2.48063 19.976 2.54196 19.9263L2.86496 19.6667H17.6666C17.7533 19.6667 17.8413 19.658 17.9263 19.6407C17.9603 19.634 17.9923 19.6243 18.0246 19.6137L18.0663 19.6013C18.1036 19.591 18.1406 19.58 18.178 19.5643C18.217 19.548 18.2536 19.5283 18.2903 19.5073L18.3233 19.4893C18.352 19.475 18.38 19.46 18.4056 19.4427C18.4793 19.3937 18.5483 19.3373 18.6103 19.275L19.9023 17.983C20.0326 17.8527 20.0326 17.642 19.9023 17.5117C19.772 17.3813 19.5613 17.3817 19.431 17.5117Z" fill="white"/>
<path d="M13 16C13 16.1843 13.1493 16.3333 13.3333 16.3333H17.3907L18.4883 15.2356C18.6187 15.1053 18.6187 14.8946 18.4883 14.7643C18.358 14.634 18.1473 14.634 18.017 14.7643L17.1147 15.6666H13.3333C13.1493 15.6666 13 15.8156 13 16Z" fill="white"/>
<path d="M10.3923 18.2523L15.506 10.8667C17.424 8.30933 17.1463 4.10667 14.9123 1.87267C13.705 0.665 12.0996 0 10.3923 0C8.68497 0 7.07963 0.665 5.8723 1.87233C3.63797 4.10633 3.3603 8.30967 5.27097 10.8563L10.3923 18.2523ZM10.4513 4C11.738 4 12.7846 5.047 12.7846 6.33333C12.7846 7.61967 11.738 8.66667 10.4513 8.66667C9.16463 8.66667 8.11797 7.61967 8.11797 6.33333C8.11797 5.047 9.16463 4 10.4513 4Z" fill="white"/>
</svg>
