<svg width="20" height="18" viewBox="0 0 20 18" fill="none" xmlns="http://www.w3.org/2000/svg">
<path d="M14.9631 5.14956C14.3655 4.90999 14.1928 4.76511 14.1928 4.5035C14.1928 4.29414 14.3514 4.04955 14.7985 4.04955C15.1939 4.04955 15.4972 4.20547 15.4999 4.20682C15.5318 4.22384 15.5676 4.23292 15.603 4.23292C15.6896 4.23292 15.7661 4.18055 15.7978 4.09949L15.9065 3.82181C15.9443 3.72063 15.8869 3.63246 15.8137 3.60084C15.5703 3.49486 15.0945 3.41284 15.0896 3.412C15.0819 3.41064 15.0553 3.40495 15.0553 3.37378L15.0538 2.97096C15.0538 2.84965 14.9525 2.75089 14.8281 2.75089H14.6332C14.509 2.75089 14.4078 2.84959 14.4078 2.97101L14.4083 3.39452C14.4083 3.42699 14.3731 3.44108 14.3602 3.44407C13.7596 3.58714 13.3842 4.02711 13.3842 4.58208C13.3842 5.27391 13.9561 5.58654 14.5736 5.82121C15.0672 6.01502 15.2686 6.21152 15.2686 6.49974C15.2686 6.81339 14.9834 7.03245 14.5748 7.03245C14.226 7.03245 13.7538 6.8113 13.7491 6.80905C13.7189 6.79473 13.6869 6.78752 13.654 6.78752C13.5641 6.78752 13.4859 6.84186 13.4546 6.92602L13.3509 7.20686C13.314 7.3117 13.3708 7.39682 13.4434 7.4347C13.7334 7.58572 14.2945 7.67422 14.3195 7.67811C14.3262 7.67907 14.3603 7.69108 14.3603 7.72231V8.14396C14.3603 8.26527 14.4616 8.36403 14.5861 8.36403H14.7874C14.9119 8.36403 15.0132 8.26532 15.0132 8.14396V7.70021C15.0132 7.65872 15.0438 7.65506 15.0501 7.65353C15.69 7.50979 16.0841 7.04163 16.0841 6.4538C16.0839 5.85002 15.7486 5.45988 14.9631 5.14956Z" fill="white"/>
<path d="M14.7115 0.268829C11.7906 0.268829 9.42297 2.63667 9.42297 5.55739C9.42297 8.47817 11.7906 10.8461 14.7115 10.8461C17.6323 10.8461 20 8.47817 20 5.55739C20 2.63667 17.6323 0.268829 14.7115 0.268829ZM14.7115 9.62041C12.4675 9.62041 10.6486 7.80127 10.6486 5.55745C10.6486 3.31362 12.4675 1.49455 14.7115 1.49455C16.9554 1.49455 18.7743 3.31362 18.7743 5.55745C18.7743 7.80127 16.9554 9.62041 14.7115 9.62041Z" fill="white"/>
<path d="M18.9254 13.4089C17.8009 14.0296 16.2541 14.6035 14.7116 14.8454C13.3392 15.0606 10.7573 14.5416 10.7573 13.9285C10.7573 13.6962 13.0217 14.5009 14.3915 14.1355C15.4418 13.8553 15.2927 12.8727 14.7214 12.7431C14.1534 12.6142 10.8257 11.3951 9.40437 11.3531C8.7348 11.3333 7.08174 11.586 6.28184 11.7162C6.00783 11.7608 5.83601 11.7559 5.81887 12.0181C5.73928 13.2369 5.5824 15.7291 5.49688 17.0309C5.49508 17.0584 5.5333 17.4283 5.83855 17.168C6.17265 16.8831 6.64126 16.5673 7.07469 16.6657C7.75469 16.8199 13.6376 17.8977 14.449 17.7091C15.6099 17.4392 18.896 15.4918 19.526 14.8865C20.5026 13.9481 19.7434 12.9574 18.9254 13.4089Z" fill="white"/>
<path d="M4.19544 11.6687L1.11356 11.5168C0.87562 11.5051 0.632607 11.6844 0.573474 11.9152L0.0130957 17.0029C-0.0459805 17.2336 0.10047 17.43 0.338522 17.4392L3.75401 17.4389C3.99211 17.4481 4.2017 17.2613 4.21996 17.0237L4.59505 12.1219C4.6132 11.8844 4.43338 11.6804 4.19544 11.6687ZM2.3811 16.7649C1.91047 16.7649 1.52901 16.3834 1.52901 15.9128C1.52901 15.4421 1.91052 15.0607 2.3811 15.0607C2.85168 15.0607 3.2332 15.4422 3.2332 15.9128C3.2332 16.3834 2.85174 16.7649 2.3811 16.7649Z" fill="white"/>
</svg>
