<svg width="26" height="26" viewBox="0 0 26 26" fill="none" xmlns="http://www.w3.org/2000/svg">
<g clip-path="url(#clip0)">
<path d="M22.1914 14.5234C21.5674 14.5234 20.9865 14.6887 20.4662 14.9559L19.4367 13.7324C19.8932 13.4626 20.3869 13.2551 20.9088 13.1383C21.3343 13.0424 21.756 13.0073 22.1956 13.0008C22.7633 13.0052 23.3219 12.7812 23.7398 12.367C24.1758 11.9356 24.4258 11.3353 24.4258 10.6256C24.4258 6.72435 21.1393 3.85938 17.6693 3.85938H16.8086C16.3877 3.85938 16.0469 4.20016 16.0469 4.62109C16.0469 5.04202 16.3877 5.38281 16.8086 5.38281H17.6693C17.8962 5.38281 18.1126 5.42189 18.332 5.45006V6.92192C17.8897 6.96199 17.4731 7.09886 17.079 7.28235C17.074 7.2766 17.0677 7.27283 17.0629 7.26707C16.4377 7.55946 15.8987 8.01669 15.5083 8.60226L13.7744 11.2028C13.6554 11.3806 13.4679 11.5004 13.2559 11.5331C11.7138 11.7701 10.377 12.7532 9.67502 14.1888C10.3257 15.1612 10.7148 16.3196 10.7148 17.5703H9.14062C9.14062 15.0501 7.09053 13 4.57031 13C2.05009 13 0 15.0501 0 17.5703C0 20.0905 2.05009 22.1406 4.57031 22.1406C6.55376 22.1406 8.22894 20.8632 8.85994 19.0938H16.0469C16.4678 19.0938 16.8086 18.753 16.8086 18.332C16.8086 17.9087 16.8592 17.4765 16.9582 17.0482C17.1656 16.1588 17.6282 15.3492 18.2491 14.6879L19.2772 15.9096C18.7272 16.57 18.3828 17.4075 18.3828 18.332C18.3828 20.4319 20.0915 22.1406 22.1914 22.1406C24.2913 22.1406 26 20.4319 26 18.332C26 16.2321 24.2913 14.5234 22.1914 14.5234ZM4.57031 20.6172C2.88997 20.6172 1.52344 19.2507 1.52344 17.5703C1.52344 15.89 2.88997 14.5234 4.57031 14.5234C6.25066 14.5234 7.61719 15.89 7.61719 17.5703H5.33203C4.9117 17.5703 4.57031 17.2289 4.57031 16.8086C4.57031 16.3877 4.22952 16.0469 3.80859 16.0469C3.38766 16.0469 3.04688 16.3877 3.04688 16.8086C3.04688 18.0686 4.07202 19.0938 5.33203 19.0938H7.19348C6.66504 20.0001 5.69325 20.6172 4.57031 20.6172ZM22.1914 20.6172C20.9314 20.6172 19.9062 19.592 19.9062 18.332C19.9062 17.8907 20.0378 17.4818 20.2554 17.1319L21.5963 18.8081C21.8611 19.1384 22.3408 19.1882 22.6675 18.9271C22.9956 18.6637 23.0491 18.1848 22.7865 17.856L21.4471 16.1818C21.6816 16.1002 21.9294 16.0469 22.1914 16.0469C23.4514 16.0469 24.4766 17.072 24.4766 18.332C24.4766 19.592 23.4514 20.6172 22.1914 20.6172Z" fill="white"/>
<path d="M12.9358 9.71489L14.2408 7.75723C14.658 7.1312 15.2051 6.62259 15.8265 6.22765C14.9906 5.6998 14.027 5.38281 13.0001 5.38281C11.2003 5.38281 9.5378 6.30025 8.55927 7.77151L9.77762 8.50269C10.7564 9.08984 11.8281 9.483 12.9358 9.71489Z" fill="white"/>
<path d="M8.99364 9.80872L4.10555 6.90625H0.761719C0.34079 6.90625 0 7.24704 0 7.66797C0 9.76785 1.70871 11.4766 3.80859 11.4766C5.33223 11.4766 6.9128 11.5097 8.60623 12.9818C8.61278 12.9697 8.61278 12.956 8.62012 12.9443C9.21104 11.9941 10.0454 11.2574 11.0019 10.7396C10.3094 10.4863 9.63138 10.1912 8.99364 9.80872Z" fill="white"/>
</g>
<defs>
<clipPath id="clip0">
<rect width="26" height="26" fill="white"/>
</clipPath>
</defs>
</svg>
