<svg width="264" height="238" viewBox="0 0 264 238" fill="none" xmlns="http://www.w3.org/2000/svg">
<g clip-path="url(#clip0)">
<path d="M252.359 8.40111H135.553C129.124 8.40111 123.912 13.6179 123.912 20.0532V178.213C123.912 184.648 129.124 189.865 135.553 189.865H252.359C258.788 189.865 264 184.648 264 178.213V20.0532C264 13.6179 258.788 8.40111 252.359 8.40111Z" fill="#F2F2F2"/>
<path d="M245.645 0.152756H128.839C122.41 0.152756 117.198 5.36958 117.198 11.8049V169.965C117.198 176.4 122.41 181.617 128.839 181.617H245.645C252.074 181.617 257.286 176.4 257.286 169.965V11.8049C257.286 5.36958 252.074 0.152756 245.645 0.152756Z" stroke="#3F3D56" stroke-miterlimit="10"/>
<path d="M248.892 18.9317H124.37V162.838H248.892V18.9317Z" stroke="#3F3D56" stroke-miterlimit="10"/>
<path d="M187.242 12.5253C188.927 12.5253 190.294 11.1575 190.294 9.47034C190.294 7.78314 188.927 6.41539 187.242 6.41539C185.556 6.41539 184.19 7.78314 184.19 9.47034C184.19 11.1575 185.556 12.5253 187.242 12.5253Z" stroke="#3F3D56" stroke-miterlimit="10"/>
<path d="M187.242 178.867C190.95 178.867 193.956 175.858 193.956 172.146C193.956 168.434 190.95 165.425 187.242 165.425C183.533 165.425 180.527 168.434 180.527 172.146C180.527 175.858 183.533 178.867 187.242 178.867Z" stroke="#3F3D56" stroke-miterlimit="10"/>
<path d="M183.424 34.6942C180.738 34.6942 178.079 35.2237 175.597 36.2524C173.116 37.2812 170.861 38.7891 168.962 40.69C167.063 42.5909 165.557 44.8476 164.529 47.3313C163.501 49.815 162.972 52.477 162.972 55.1653C162.972 66.4712 184.398 108.171 184.398 108.171C184.398 108.171 203.875 66.4711 203.875 55.1653C203.875 49.736 201.721 44.5291 197.885 40.69C194.05 36.8509 188.848 34.6942 183.424 34.6942ZM183.424 68.8127C181.305 68.8127 179.234 68.1838 177.472 67.0055C175.71 65.8273 174.337 64.1526 173.526 62.1932C172.716 60.2339 172.503 58.0778 172.917 55.9978C173.33 53.9177 174.35 52.0071 175.849 50.5074C177.347 49.0078 179.256 47.9865 181.334 47.5728C183.412 47.159 185.566 47.3714 187.523 48.183C189.481 48.9946 191.154 50.369 192.331 52.1324C193.508 53.8957 194.136 55.9689 194.136 58.0897C194.136 60.9336 193.008 63.6611 190.999 65.672C188.99 67.6829 186.265 68.8127 183.424 68.8127V68.8127Z" fill="#FFAA2A"/>
<path d="M183.427 129.072C194.72 129.072 203.875 126.062 203.875 122.351C203.875 118.639 194.72 115.63 183.427 115.63C172.133 115.63 162.978 118.639 162.978 122.351C162.978 126.062 172.133 129.072 183.427 129.072Z" fill="#FFAA2A"/>
<path d="M110.447 29.3145C109.146 29.388 107.891 29.8229 106.823 30.5703C105.755 31.3177 104.916 32.3481 104.401 33.5459C102.889 37.2038 104.835 41.5006 107.758 44.168C110.68 46.8354 114.434 48.3601 117.844 50.3642C122.425 53.056 126.541 56.7926 128.833 61.5892C131.126 66.3858 131.369 72.3274 128.675 76.9098C126.174 81.163 121.627 83.7085 117.29 86.0562" stroke="#3F3D56" stroke-miterlimit="10"/>
<path d="M114.298 32.2297C117.248 32.2297 119.639 31.0671 119.639 29.633C119.639 28.1989 117.248 27.0363 114.298 27.0363C111.349 27.0363 108.957 28.1989 108.957 29.633C108.957 31.0671 111.349 32.2297 114.298 32.2297Z" fill="#57B894"/>
<path d="M118.571 49.3374C121.521 49.3374 123.912 48.1748 123.912 46.7407C123.912 45.3066 121.521 44.144 118.571 44.144C115.621 44.144 113.23 45.3066 113.23 46.7407C113.23 48.1748 115.621 49.3374 118.571 49.3374Z" fill="#57B894"/>
<path d="M108.805 52.0868C111.754 52.0868 114.146 50.9243 114.146 49.4901C114.146 48.056 111.754 46.8934 108.805 46.8934C105.855 46.8934 103.464 48.056 103.464 49.4901C103.464 50.9243 105.855 52.0868 108.805 52.0868Z" fill="#57B894"/>
<path d="M124.065 66.4451C127.015 66.4451 129.406 65.2825 129.406 63.8484C129.406 62.4143 127.015 61.2517 124.065 61.2517C121.115 61.2517 118.724 62.4143 118.724 63.8484C118.724 65.2825 121.115 66.4451 124.065 66.4451Z" fill="#57B894"/>
<path d="M134.747 66.4451C137.697 66.4451 140.088 65.2825 140.088 63.8484C140.088 62.4143 137.697 61.2517 134.747 61.2517C131.797 61.2517 129.406 62.4143 129.406 63.8484C129.406 65.2825 131.797 66.4451 134.747 66.4451Z" fill="#57B894"/>
<path d="M14.4944 237.847H123.912" stroke="#3F3D56" stroke-miterlimit="10"/>
<path d="M10.4817 184.923C9.2702 184.991 8.10175 185.396 7.10732 186.092C6.11289 186.788 5.3318 187.748 4.85164 188.863C3.44384 192.269 5.25648 196.271 7.97758 198.754C10.6987 201.238 14.1941 202.658 17.37 204.524C21.6357 207.031 25.4688 210.51 27.6032 214.977C29.7376 219.443 29.9646 224.976 27.4558 229.243C25.1271 233.204 20.8928 235.574 16.8544 237.76" stroke="#3F3D56" stroke-miterlimit="10"/>
<path d="M14.068 187.638C16.8148 187.638 19.0416 186.555 19.0416 185.219C19.0416 183.884 16.8148 182.801 14.068 182.801C11.3212 182.801 9.09448 183.884 9.09448 185.219C9.09448 186.555 11.3212 187.638 14.068 187.638Z" fill="#57B894"/>
<path d="M18.0468 203.568C20.7936 203.568 23.0203 202.486 23.0203 201.15C23.0203 199.815 20.7936 198.732 18.0468 198.732C15.3 198.732 13.0732 199.815 13.0732 201.15C13.0732 202.486 15.3 203.568 18.0468 203.568Z" fill="#57B894"/>
<path d="M8.9523 206.128C11.6991 206.128 13.9258 205.046 13.9258 203.71C13.9258 202.375 11.6991 201.292 8.9523 201.292C6.20549 201.292 3.97876 202.375 3.97876 203.71C3.97876 205.046 6.20549 206.128 8.9523 206.128Z" fill="#57B894"/>
<path d="M23.1625 219.499C25.9093 219.499 28.136 218.416 28.136 217.081C28.136 215.745 25.9093 214.663 23.1625 214.663C20.4157 214.663 18.189 215.745 18.189 217.081C18.189 218.416 20.4157 219.499 23.1625 219.499Z" fill="#57B894"/>
<path d="M33.1095 219.499C35.8563 219.499 38.0831 218.416 38.0831 217.081C38.0831 215.745 35.8563 214.663 33.1095 214.663C30.3627 214.663 28.136 215.745 28.136 217.081C28.136 218.416 30.3627 219.499 33.1095 219.499Z" fill="#57B894"/>
<path d="M22.5413 194.692C23.5306 194.748 24.4849 195.079 25.297 195.647C26.1091 196.216 26.747 196.999 27.1391 197.91C28.2888 200.692 26.8085 203.96 24.5863 205.988C22.364 208.017 19.5095 209.176 16.9158 210.7C13.4321 212.747 10.3017 215.589 8.55867 219.236C6.81558 222.884 6.63018 227.403 8.6791 230.887C10.5808 234.122 14.0388 236.058 17.3369 237.843" stroke="#3F3D56" stroke-miterlimit="10"/>
<path d="M19.6123 196.909C21.8555 196.909 23.674 196.025 23.674 194.935C23.674 193.844 21.8555 192.96 19.6123 192.96C17.369 192.96 15.5505 193.844 15.5505 194.935C15.5505 196.025 17.369 196.909 19.6123 196.909Z" fill="#57B894"/>
<path d="M16.363 209.919C18.6062 209.919 20.4247 209.035 20.4247 207.945C20.4247 206.854 18.6062 205.97 16.363 205.97C14.1198 205.97 12.3013 206.854 12.3013 207.945C12.3013 209.035 14.1198 209.919 16.363 209.919Z" fill="#57B894"/>
<path d="M23.79 212.01C26.0332 212.01 27.8517 211.126 27.8517 210.035C27.8517 208.945 26.0332 208.061 23.79 208.061C21.5468 208.061 19.7283 208.945 19.7283 210.035C19.7283 211.126 21.5468 212.01 23.79 212.01Z" fill="#57B894"/>
<path d="M12.185 222.929C14.4282 222.929 16.2467 222.045 16.2467 220.955C16.2467 219.864 14.4282 218.98 12.185 218.98C9.94179 218.98 8.12329 219.864 8.12329 220.955C8.12329 222.045 9.94179 222.929 12.185 222.929Z" fill="#57B894"/>
<path d="M4.06172 222.929C6.30495 222.929 8.12345 222.045 8.12345 220.955C8.12345 219.864 6.30495 218.98 4.06172 218.98C1.8185 218.98 0 219.864 0 220.955C0 222.045 1.8185 222.929 4.06172 222.929Z" fill="#57B894"/>
<path d="M39.6291 225.304C39.6291 225.304 42.4712 226.726 44.4606 227.011C46.45 227.295 47.569 225.281 47.1516 224.581C46.7342 223.881 48.4394 224.45 49.5762 227.011C49.5762 227.011 54.4077 232.7 57.2497 232.985C60.0917 233.269 60.1139 237.12 58.6707 237.252C57.1076 237.394 54.4077 238.39 50.9972 237.252C47.5868 236.114 44.4606 232.985 43.0396 232.985C41.6186 232.985 36.7871 230.709 38.2081 229.571C39.6292 228.433 39.6291 225.304 39.6291 225.304Z" fill="#3F3D56"/>
<path d="M67.6402 231.731C69.091 231.843 70.5503 231.753 71.9766 231.465C73.9294 230.99 74.2215 228.704 73.5744 228.209C72.9274 227.714 74.7217 227.609 76.7268 229.564C76.7268 229.564 83.3229 233.052 86.0673 232.26C88.8118 231.468 90.2606 235.036 88.9692 235.694C86.7793 236.896 84.3449 237.584 81.8503 237.705C78.2615 237.916 74.1919 237.012 72.8724 237.54C71.553 238.068 66.2227 237.75 67.1203 236.165C68.0178 234.581 67.6402 231.731 67.6402 231.731Z" fill="#3F3D56"/>
<path d="M62.8087 96.0367C68.9302 96.0367 73.8926 91.0696 73.8926 84.9422C73.8926 78.8149 68.9302 73.8477 62.8087 73.8477C56.6873 73.8477 51.7249 78.8149 51.7249 84.9422C51.7249 91.0696 56.6873 96.0367 62.8087 96.0367Z" fill="#FFC1C7"/>
<path d="M54.1405 89.3516C54.1405 89.3516 55.8457 101.3 51.8669 103.006C47.8881 104.713 72.0453 104.144 72.0453 104.144C72.0453 104.144 68.6348 93.3342 69.4874 90.4895C70.34 87.6448 54.1405 89.3516 54.1405 89.3516Z" fill="#FFC1C7"/>
<path d="M50.1617 157.341C50.1617 157.341 49.3091 178.961 48.4565 181.237C47.6039 183.513 46.7513 198.874 46.7513 198.874L39.3621 226.753L46.1829 229.029C46.1829 229.029 55.5616 212.529 56.6984 210.538C57.8352 208.546 66.9297 176.685 66.9297 176.685C66.9297 176.685 66.0771 196.314 66.0771 202.857C66.0771 209.4 67.7823 233.296 67.7823 233.296L73.1821 232.727L80.2872 202.572C80.2872 202.572 90.5184 161.893 83.6976 157.341C76.8768 152.789 50.1617 157.341 50.1617 157.341Z" fill="#2F2E41"/>
<path d="M91.6551 164.168C91.6551 164.168 91.9393 180.668 88.5289 178.108C85.1185 175.547 88.5289 162.746 88.5289 162.746L91.6551 164.168Z" fill="#FFC1C7"/>
<path d="M44.4777 158.479C44.4777 158.479 44.7619 174.978 41.3514 172.418C37.941 169.858 41.3514 157.057 41.3514 157.057L44.4777 158.479Z" fill="#FFC1C7"/>
<path d="M86.2555 110.403C86.2555 110.403 80.5714 103.86 75.74 104.713C70.9085 105.567 44.4777 105.282 44.4777 105.282C44.4777 105.282 35.6675 116.377 37.9411 118.652C40.2147 120.928 47.604 161.324 47.604 161.324C47.604 161.324 67.2139 158.763 74.0348 158.763C80.8556 158.763 83.6976 157.625 83.6976 157.625C83.6976 157.625 74.6032 139.419 78.8662 131.169C83.1292 122.92 89.3817 114.101 89.3817 114.101L86.2555 110.403Z" fill="#FFAA2A"/>
<path d="M84.5502 112.394L89.3816 114.101C89.3816 114.101 92.2236 124.057 92.2236 132.023C92.2236 139.988 92.5079 143.971 93.6447 146.815C94.7815 149.66 98.4761 163.03 96.4867 165.875C95.3883 167.495 94.0461 168.934 92.5079 170.142L85.9712 169.573C85.9712 169.573 85.687 160.186 83.9818 159.332C82.2766 158.479 80.003 153.074 80.003 153.074C80.003 153.074 74.6031 135.721 78.0136 130.031C81.424 124.342 84.5502 112.394 84.5502 112.394Z" fill="#FFAA2A"/>
<path d="M66.3612 122.92C66.3612 122.92 69.2033 110.403 63.8034 110.972C58.4036 111.541 51.0143 111.825 49.0249 111.825C47.0355 111.825 35.6674 110.403 33.9622 117.799C32.257 125.195 29.9834 134.299 34.8148 139.988C34.8148 139.988 36.52 165.022 43.0567 166.729C49.5933 168.435 66.9296 170.427 73.1821 162.177C79.4345 153.927 76.8767 144.824 76.8767 144.824H74.0347L66.3612 122.92Z" fill="#3F3D56"/>
<path d="M75.7397 145.393L78.0132 130.031L76.8766 145.962L75.7397 145.393Z" fill="#3F3D56"/>
<path opacity="0.1" d="M37.6567 141.979C37.6567 141.979 42.4882 144.255 52.4352 142.833V147.1L37.6567 145.962V141.979Z" fill="black"/>
<path d="M63.6614 110.83L71.0506 106.847L64.7983 112.252L63.6614 110.83Z" fill="#3F3D56"/>
<path d="M79.4346 106.705C79.4346 106.705 85.1187 108.696 85.1187 106.705C85.1187 104.713 80.003 103.006 76.8768 101.868C73.7506 100.731 58.972 99.0237 56.6984 98.1703C54.4248 97.3169 43.6251 95.8945 42.7725 99.3082C41.9199 102.722 41.6357 109.834 45.8987 110.687C50.1618 111.541 61.2457 109.265 66.9297 109.834C72.6137 110.403 79.4346 106.705 79.4346 106.705Z" fill="#343B71"/>
<path d="M79.4346 106.705C79.4346 106.705 85.1187 108.696 85.1187 106.705C85.1187 104.713 80.003 103.006 76.8768 101.868C73.7506 100.731 58.972 99.0237 56.6984 98.1703C54.4248 97.3169 43.6251 95.8945 42.7725 99.3082C41.9199 102.722 41.6357 109.834 45.8987 110.687C50.1618 111.541 61.2457 109.265 66.9297 109.834C72.6137 110.403 79.4346 106.705 79.4346 106.705Z" fill="#FFAA2A"/>
<path d="M39.7883 113.105L41.72 109.044L42.0621 113.959L39.7883 113.105Z" fill="#3F3D56"/>
<path d="M60.8879 96.3934C66.6189 96.3934 71.2647 90.9908 71.2647 84.3264C71.2647 77.6619 66.6189 72.2593 60.8879 72.2593C55.1569 72.2593 50.511 77.6619 50.511 84.3264C50.511 90.9908 55.1569 96.3934 60.8879 96.3934Z" fill="#2F2E41"/>
<path d="M62.7192 84.4791C68.4501 84.4791 73.096 81.5384 73.096 77.911C73.096 74.2835 68.4501 71.3428 62.7192 71.3428C56.9882 71.3428 52.3423 74.2835 52.3423 77.911C52.3423 81.5384 56.9882 84.4791 62.7192 84.4791Z" fill="#2F2E41"/>
<path d="M70.807 89.6725C71.3969 89.6725 71.8752 88.8519 71.8752 87.8395C71.8752 86.8272 71.3969 86.0066 70.807 86.0066C70.217 86.0066 69.7388 86.8272 69.7388 87.8395C69.7388 88.8519 70.217 89.6725 70.807 89.6725Z" fill="#FFC1C7"/>
<path d="M69.3169 76.2572C70.4085 75.6591 71.341 74.5779 72.0392 73.1008C72.1076 73.4292 72.1259 73.766 72.0937 74.0999C72.547 74.0487 72.9873 73.9159 73.3933 73.7077L73.2959 74.7725C74.0801 74.2917 74.8008 73.7141 75.441 73.0533C75.6146 74.6068 75.3545 76.178 74.6896 77.5924C74.1234 78.7115 73.3539 79.4394 72.5925 80.1564" fill="#2F2E41"/>
</g>
<defs>
<clipPath id="clip0">
<rect width="264" height="238" fill="white"/>
</clipPath>
</defs>
</svg>
