<svg width="287" height="189" viewBox="0 0 287 189" fill="none" xmlns="http://www.w3.org/2000/svg">
<g clip-path="url(#clip0)">
<circle cx="192" cy="100" r="75" fill="#F2F2F2"/>
<path d="M123.932 25.619H24.335V97.758H123.932V25.619Z" fill="#FFAA2A"/>
<path d="M239.083 174.673H145.256V175.175H239.083V174.673Z" fill="#3F3D56"/>
<path d="M284.472 161.351H209.372C209.372 161.351 207.85 138.981 216.857 138.727C225.864 138.473 224.849 148.641 236.139 134.66C247.43 120.678 261.13 121.441 262.906 129.703C264.682 137.964 259.481 144.573 268.995 142.54C278.51 140.506 292.21 145.844 284.472 161.351Z" fill="#FFAA2A"/>
<path d="M245.654 161.356L245.401 161.346C245.992 146.618 249.071 137.155 251.549 131.81C254.24 126.006 256.834 123.657 256.86 123.634L257.028 123.824C257.003 123.847 254.44 126.173 251.77 131.937C249.305 137.259 246.243 146.683 245.654 161.356Z" fill="#F2F2F2"/>
<path d="M272.835 161.386L272.591 161.315C275.524 151.229 282.431 144.861 282.5 144.798L282.671 144.986C282.602 145.049 275.747 151.372 272.835 161.386Z" fill="#F2F2F2"/>
<path d="M221.201 161.368L220.949 161.333C221.944 154.143 220.147 148.565 218.464 145.151C216.641 141.455 214.562 139.436 214.541 139.416L214.717 139.233C214.738 139.253 216.849 141.303 218.691 145.038C220.39 148.484 222.205 154.114 221.201 161.368Z" fill="#F2F2F2"/>
<path d="M287 161.351H10.7876V161.854H287V161.351Z" fill="#3F3D56"/>
<path d="M205.574 9.90675H181.817V39.479H205.574V9.90675Z" fill="#2F2E41"/>
<path d="M162.2 147.851L158.961 159.752L164.36 163.719L165.8 162.637L168.319 150.375L162.2 147.851Z" fill="#FFB8B8"/>
<path d="M202.874 146.769L201.794 161.194H208.633V147.85L202.874 146.769Z" fill="#FFB8B8"/>
<path d="M181.277 55.5274V64.1826L194.595 66.3465L206.114 61.6582L203.954 56.2486L181.277 55.5274Z" fill="#FFB8B8"/>
<path d="M192.076 62.7401L180.558 60.5763L177.678 84.0178L170.479 113.229C170.479 113.229 159.681 138.113 161.12 143.884L161.84 145.687L161.12 148.932L168.319 151.818L171.199 147.129C171.199 147.129 173.359 150.375 176.958 143.523C180.558 136.671 195.675 94.1156 195.675 94.1156L198.195 101.328C197.543 103.553 197.42 105.9 197.835 108.18C198.555 111.787 199.275 122.967 199.275 122.967C199.275 122.967 195.315 142.441 200.715 143.884L201.794 148.211L209.353 148.932L210.793 144.605C210.793 144.605 217.992 142.08 216.192 129.458C214.393 116.836 213.673 75.3625 213.673 75.3625L206.582 57.8447L192.076 62.7401Z" fill="#2F2E41"/>
<path d="M161.12 159.03C161.12 159.03 159.321 157.588 158.601 157.948C157.881 158.309 150.322 168.046 150.322 168.046C150.322 168.046 142.403 174.177 148.162 174.898C153.922 175.62 169.759 167.686 169.759 165.882C169.759 164.079 166.431 159.563 166.431 159.563C166.431 159.563 164 161.555 161.12 159.03Z" fill="#2F2E41"/>
<path d="M201.075 157.948C201.075 157.948 207.554 157.545 208.633 158.648C209.713 159.752 209.353 165.161 209.353 165.161C209.353 165.161 210.073 174.898 204.314 174.898C198.555 174.898 199.995 168.407 199.995 168.407L201.075 157.948Z" fill="#2F2E41"/>
<path d="M194.595 23.7913C199.565 23.7913 203.594 19.7547 203.594 14.7754C203.594 9.79599 199.565 5.75941 194.595 5.75941C189.626 5.75941 185.597 9.79599 185.597 14.7754C185.597 19.7547 189.626 23.7913 194.595 23.7913Z" fill="#FFB8B8"/>
<path d="M188.656 20.3652C188.656 20.3652 193.695 26.4961 183.617 31.1844C173.538 35.8726 190.816 55.3471 190.816 55.3471C190.816 55.3471 210.973 47.7737 209.173 32.9875C209.173 32.9875 196.935 30.8237 199.815 20.7259L188.656 20.3652Z" fill="#FFB8B8"/>
<path d="M183.257 30.8237C183.257 30.8237 174.978 29.7418 174.618 36.5939C174.258 43.446 174.618 60.0354 174.618 60.0354C174.618 60.0354 171.019 74.4609 172.819 87.0832C172.819 87.0832 170.659 101.869 176.418 101.148C182.177 100.427 177.858 86.0013 177.858 86.0013L180.378 62.5598L179.298 45.2492L183.977 34.7907L183.257 30.8237Z" fill="#FFB8B8"/>
<path d="M207.083 32.417C207.083 32.417 214.933 32.2663 215.293 38.0365C215.652 43.8067 212.773 61.4779 212.773 61.4779L208.454 63.6417L204.494 51.3801L207.083 32.417Z" fill="#FFB8B8"/>
<path d="M209.353 62.0189L208.633 63.822L210.793 69.2316C210.793 69.2316 202.154 76.0837 202.874 77.5263C203.594 78.9688 207.553 75.7231 207.553 75.7231L213.313 78.6082C213.313 78.6082 217.992 73.5593 215.832 68.871C213.673 64.1827 212.838 61.0689 212.838 61.0689C212.838 61.0689 209.713 60.9369 209.353 62.0189Z" fill="#FFB8B8"/>
<path d="M181.637 29.5615L180.558 41.4625C180.558 41.4625 175.518 46.5115 181.277 53.3636L180.558 58.7731C180.558 58.7731 193.876 58.0519 196.395 58.7731C198.915 59.4944 206.696 58.1924 206.696 58.1924L206.834 54.0848C206.834 54.0848 210.433 49.0359 209.353 41.4625C208.273 33.8891 209.353 31.3647 209.353 31.3647L206.834 31.004C206.834 31.004 205.214 42.0035 194.056 43.0854C194.056 43.0854 180.198 44.3476 184.157 29.5615H181.637Z" fill="#FFAA2A"/>
<path d="M195.495 0.169539C195.495 0.169539 186.137 -0.411737 183.977 5.41904C181.817 11.2498 178.038 14.311 178.038 14.311C178.038 14.311 172.084 18.4573 175.061 25.8592C175.061 25.8592 165.8 32.0948 171.919 37.6341C171.919 37.6341 171.559 43.1733 175.158 46.9633C175.158 46.9633 178.038 48.421 176.958 49.2956C175.878 50.1702 184.157 49.5872 183.437 41.7156C182.717 33.8441 187.576 28.2993 187.576 28.2993C187.576 28.2993 182.897 18.0935 185.057 14.595C186.368 12.471 186.931 10.887 188.02 9.97027C188.626 9.47193 189.188 8.92221 189.7 8.3272C190.184 7.714 190.842 7.26143 191.587 7.02865C192.332 6.79588 193.129 6.79373 193.875 7.0225C197.115 7.89712 197.835 10.521 197.835 10.521C197.835 10.521 200.175 16.7891 204.134 19.7044C208.093 22.6198 201.074 27.7218 201.074 27.7218C201.074 27.7218 202.294 33.7285 205.464 37.2848C208.633 40.841 204.551 43.9409 204.314 44.3395C203.774 45.2492 201.618 50.994 210.525 51.0194C210.525 51.0194 212.593 46.6718 215.472 44.0479C218.352 41.4241 216.192 33.8441 216.192 33.8441C216.192 33.8441 220.512 31.2202 215.832 24.8064C215.832 24.8064 217.272 18.9756 213.313 15.1856C213.313 15.1856 207.733 -1.87123 195.495 0.169539Z" fill="#2F2E41"/>
<path d="M184.877 16.0376C185.374 16.0376 185.777 15.3917 185.777 14.595C185.777 13.7983 185.374 13.1525 184.877 13.1525C184.38 13.1525 183.977 13.7983 183.977 14.595C183.977 15.3917 184.38 16.0376 184.877 16.0376Z" fill="#FFB8B8"/>
<path d="M148.768 188.749H0.250976C0.250976 188.749 -2.75951 144.51 15.0526 144.007C32.8646 143.505 30.8576 163.613 53.1854 135.964C75.5132 108.315 102.608 109.823 106.12 126.161C109.632 142.499 99.3463 155.57 118.162 151.548C136.977 147.526 164.072 158.083 148.768 188.749Z" fill="#FFAA2A"/>
<path d="M72.0025 188.759L71.5012 188.739C72.6702 159.612 78.7586 140.898 83.6602 130.328C88.9822 118.851 94.1107 114.205 94.1619 114.16L94.4953 114.535C94.4448 114.58 89.3761 119.18 84.0968 130.58C79.2222 141.105 73.1672 159.742 72.0025 188.759Z" fill="#F2F2F2"/>
<path d="M125.755 188.819L125.273 188.678C131.073 168.732 144.731 156.139 144.869 156.014L145.206 156.386C145.07 156.51 131.514 169.015 125.755 188.819Z" fill="#F2F2F2"/>
<path d="M23.6429 188.783L23.1458 188.714C25.1136 174.495 21.5591 163.463 18.2306 156.712C14.6267 149.402 10.5145 145.41 10.4734 145.371L10.8205 145.008C10.8623 145.048 15.038 149.101 18.6804 156.489C22.0401 163.303 25.6282 174.437 23.6429 188.783Z" fill="#F2F2F2"/>
<path d="M209.982 188.497H0V189H209.982V188.497Z" fill="#3F3D56"/>
<path d="M141.744 98.0094H24.084V4.50517H141.744V98.0094ZM24.5857 97.5067H141.242V5.00788H24.5857V97.5067Z" fill="#3F3D56"/>
<path d="M34.3698 47.2356C36.7253 47.2356 38.6347 45.3225 38.6347 42.9625C38.6347 40.6026 36.7253 38.6895 34.3698 38.6895C32.0144 38.6895 30.105 40.6026 30.105 42.9625C30.105 45.3225 32.0144 47.2356 34.3698 47.2356Z" fill="#343B71"/>
<path d="M46.4116 47.2356C48.767 47.2356 50.6764 45.3225 50.6764 42.9625C50.6764 40.6026 48.767 38.6895 46.4116 38.6895C44.0562 38.6895 42.1467 40.6026 42.1467 42.9625C42.1467 45.3225 44.0562 47.2356 46.4116 47.2356Z" fill="#D0CDE1"/>
<path opacity="0.5" d="M58.4536 47.2356C60.809 47.2356 62.7184 45.3225 62.7184 42.9625C62.7184 40.6026 60.809 38.6895 58.4536 38.6895C56.0982 38.6895 54.1887 40.6026 54.1887 42.9625C54.1887 45.3225 56.0982 47.2356 58.4536 47.2356Z" fill="#343B71"/>
<path d="M70.4956 47.2356C72.851 47.2356 74.7604 45.3225 74.7604 42.9625C74.7604 40.6026 72.851 38.6895 70.4956 38.6895C68.1402 38.6895 66.2307 40.6026 66.2307 42.9625C66.2307 45.3225 68.1402 47.2356 70.4956 47.2356Z" fill="#F2F2F2"/>
<path d="M117.911 40.9517H82.7886V44.9734H117.911V40.9517Z" fill="#F2F2F2"/>
<path d="M72.2516 82.928C78.6251 82.928 83.7918 77.7514 83.7918 71.3657C83.7918 64.98 78.6251 59.8034 72.2516 59.8034C65.8782 59.8034 60.7114 64.98 60.7114 71.3657C60.7114 77.7514 65.8782 82.928 72.2516 82.928Z" fill="#F2F2F2"/>
<path d="M72.2998 74.8466L66.5246 69.0604C66.3364 68.8718 66.2307 68.6161 66.2307 68.3494C66.2307 68.0828 66.3364 67.827 66.5247 67.6384C66.7129 67.4499 66.9681 67.3439 67.2343 67.3439C67.5004 67.3439 67.7557 67.4499 67.9439 67.6384L72.2037 71.9065L85.7971 56.3756C85.884 56.2763 85.9896 56.1952 86.1077 56.1368C86.2259 56.0784 86.3544 56.0439 86.4859 56.0352C86.6174 56.0266 86.7493 56.044 86.8741 56.0864C86.9989 56.1288 87.1141 56.1955 87.2132 56.2825C87.3123 56.3696 87.3933 56.4753 87.4515 56.5938C87.5098 56.7122 87.5443 56.8409 87.5529 56.9727C87.5615 57.1044 87.5442 57.2366 87.5018 57.3616C87.4594 57.4866 87.3929 57.6021 87.306 57.7013L72.2998 74.8466Z" fill="#343B71"/>
</g>
<defs>
<clipPath id="clip0">
<rect width="287" height="189" fill="white"/>
</clipPath>
</defs>
</svg>
